<svg width="50" height="50" viewBox="0 0 50 50" fill="none" xmlns="http://www.w3.org/2000/svg">
<rect width="50" height="50" rx="25" fill="#F5F1EE"/>
<path d="M28.7813 23.1875V19.25C28.7813 18.3798 28.4356 17.5452 27.8203 16.9298C27.2049 16.3145 26.3703 15.9688 25.5001 15.9688C24.6298 15.9688 23.7952 16.3145 23.1799 16.9298C22.5645 17.5452 22.2188 18.3798 22.2188 19.25V23.1875M32.1553 21.4436L33.2605 31.9436C33.3217 32.5255 32.8667 33.0312 32.2813 33.0312H18.7188C18.5808 33.0314 18.4442 33.0025 18.318 32.9464C18.1919 32.8904 18.0789 32.8084 17.9865 32.7058C17.8941 32.6032 17.8242 32.4824 17.7816 32.3511C17.7389 32.2197 17.7243 32.0809 17.7388 31.9436L18.8448 21.4436C18.8703 21.2017 18.9845 20.9779 19.1653 20.8152C19.3461 20.6525 19.5807 20.5625 19.824 20.5625H31.1762C31.6802 20.5625 32.1028 20.9431 32.1553 21.4436ZM22.547 23.1875C22.547 23.2745 22.5124 23.358 22.4508 23.4195C22.3893 23.4811 22.3059 23.5156 22.2188 23.5156C22.1318 23.5156 22.0483 23.4811 21.9868 23.4195C21.9253 23.358 21.8907 23.2745 21.8907 23.1875C21.8907 23.1005 21.9253 23.017 21.9868 22.9555C22.0483 22.8939 22.1318 22.8594 22.2188 22.8594C22.3059 22.8594 22.3893 22.8939 22.4508 22.9555C22.5124 23.017 22.547 23.1005 22.547 23.1875ZM29.1095 23.1875C29.1095 23.2745 29.0749 23.358 29.0133 23.4195C28.9518 23.4811 28.8684 23.5156 28.7813 23.5156C28.6943 23.5156 28.6108 23.4811 28.5493 23.4195C28.4878 23.358 28.4532 23.2745 28.4532 23.1875C28.4532 23.1005 28.4878 23.017 28.5493 22.9555C28.6108 22.8939 28.6943 22.8594 28.7813 22.8594C28.8684 22.8594 28.9518 22.8939 29.0133 22.9555C29.0749 23.017 29.1095 23.1005 29.1095 23.1875Z" stroke="#875541" stroke-width="1.5" stroke-linecap="round" stroke-linejoin="round"/>
</svg>
