<svg width="19" height="17" viewBox="0 0 19 17" fill="none" xmlns="http://www.w3.org/2000/svg">
<path d="M18.9171 7.30103L10.2457 0.264954C10.035 0.0927576 9.77185 -0.00122833 9.50042 -0.00122833C9.229 -0.00122833 8.96583 0.0927576 8.7551 0.264954L0.0837115 7.30103C0.060804 7.31944 0.0417585 7.34225 0.0276807 7.36813C0.0136029 7.39401 0.00477327 7.42245 0.00170444 7.4518C-0.00136439 7.48115 0.00138873 7.51081 0.00980395 7.53908C0.0182192 7.56734 0.0321288 7.59365 0.0507254 7.61646L0.519128 9.19751C0.537742 9.22064 0.560703 9.23985 0.586698 9.25403C0.612693 9.26822 0.641212 9.27711 0.670623 9.2802C0.700034 9.28328 0.729761 9.2805 0.758103 9.27201C0.786444 9.26352 0.812845 9.24949 0.835795 9.23071L2.11137 8.19511V16.4681C2.11137 16.609 2.16697 16.7441 2.26595 16.8437C2.36493 16.9434 2.49917 16.9993 2.63915 16.9993H16.3614C16.5013 16.9993 16.6356 16.9434 16.7346 16.8437C16.8335 16.7441 16.8891 16.609 16.8891 16.4681V8.19843L18.169 9.23736C18.2154 9.27518 18.2748 9.29292 18.3342 9.2867C18.3935 9.28047 18.448 9.25079 18.4857 9.20415L18.9538 7.6231C18.9894 7.57477 19.0055 7.51459 18.9987 7.45478C18.9919 7.39497 18.9627 7.34 18.9171 7.30103ZM8.91692 14.9368V11.6243H10.0836V14.9368H8.91692ZM14.8336 14.9368H12.1391V10.0931C12.1391 9.95218 12.0835 9.81706 11.9846 9.71743C11.8856 9.6178 11.7513 9.56183 11.6114 9.56183H7.38915C7.24917 9.56183 7.11493 9.6178 7.01595 9.71743C6.91697 9.81706 6.86137 9.95218 6.86137 10.0931V14.9368H4.16692V6.33847L9.35875 2.31152C9.39783 2.27931 9.44678 2.26171 9.49729 2.26171C9.5478 2.26171 9.59675 2.27931 9.63583 2.31152L14.8336 6.34112V14.9368Z" fill="black"/>
</svg>
