<svg width="18" height="18" viewBox="0 0 18 18" fill="none" xmlns="http://www.w3.org/2000/svg">
<g clip-path="url(#clip0_102_7341)">
<path d="M8.98175 1.37126C9.12724 1.02147 9.62276 1.02146 9.76824 1.37126L11.5282 5.60259C11.5895 5.75005 11.7282 5.85081 11.8874 5.86357L16.4554 6.22979C16.8331 6.26006 16.9862 6.73133 16.6985 6.97779L13.2181 9.95911C13.0968 10.063 13.0438 10.226 13.0809 10.3814L14.1442 14.8391C14.2321 15.2076 13.8312 15.4988 13.5079 15.3013L9.597 12.9126C9.46071 12.8293 9.28929 12.8293 9.153 12.9126L5.24208 15.3013C4.91878 15.4988 4.5179 15.2076 4.6058 14.8391L5.66912 10.3814C5.70617 10.226 5.6532 10.063 5.53191 9.95911L2.05152 6.97779C1.7638 6.73133 1.91693 6.26006 2.29456 6.22979L6.86263 5.86357C7.02183 5.85081 7.16051 5.75005 7.22184 5.60259L8.98175 1.37126Z" fill="#F2F4F7"/>
<g clip-path="url(#clip1_102_7341)">
<path d="M8.98175 1.37126C9.12724 1.02147 9.62276 1.02146 9.76824 1.37126L11.5282 5.60259C11.5895 5.75005 11.7282 5.85081 11.8874 5.86357L16.4554 6.22979C16.8331 6.26006 16.9862 6.73133 16.6985 6.97779L13.2181 9.95911C13.0968 10.063 13.0438 10.226 13.0809 10.3814L14.1442 14.8391C14.2321 15.2076 13.8312 15.4988 13.5079 15.3013L9.597 12.9126C9.46071 12.8293 9.28929 12.8293 9.153 12.9126L5.24208 15.3013C4.91878 15.4988 4.5179 15.2076 4.6058 14.8391L5.66912 10.3814C5.70617 10.226 5.6532 10.063 5.53191 9.95911L2.05152 6.97779C1.7638 6.73133 1.91693 6.26006 2.29456 6.22979L6.86263 5.86357C7.02183 5.85081 7.16051 5.75005 7.22184 5.60259L8.98175 1.37126Z" fill="#FDB022"/>
</g>
</g>
<defs>
<clipPath id="clip0_102_7341">
<rect width="17.0361" height="17.0361" fill="white" transform="translate(0.856934)"/>
</clipPath>
<clipPath id="clip1_102_7341">
<rect width="8.51807" height="17.0361" fill="white" transform="translate(0.856934)"/>
</clipPath>
</defs>
</svg>
