<svg width="47" height="47" viewBox="0 0 47 47" fill="none" xmlns="http://www.w3.org/2000/svg">
<rect width="46.2" height="46.2" rx="23.1" fill="#FCFCFD"/>
<path d="M32.1763 15.513C31.652 14.9883 31.0294 14.5722 30.3441 14.2882C29.6588 14.0043 28.9244 13.8582 28.1826 13.8582C27.4408 13.8582 26.7064 14.0043 26.0211 14.2882C25.3358 14.5722 24.7132 14.9883 24.1889 15.513L23.1006 16.6012L22.0123 15.513C20.9531 14.4538 19.5165 13.8587 18.0186 13.8587C16.5207 13.8587 15.0841 14.4538 14.0249 15.513C12.9657 16.5722 12.3706 18.0088 12.3706 19.5067C12.3706 21.0046 12.9657 22.4412 14.0249 23.5004L15.1131 24.5887L23.1006 32.5762L31.0881 24.5887L32.1763 23.5004C32.701 22.9761 33.1171 22.3535 33.4011 21.6682C33.685 20.9829 33.8311 20.2484 33.8311 19.5067C33.8311 18.7649 33.685 18.0305 33.4011 17.3452C33.1171 16.6599 32.701 16.0373 32.1763 15.513V15.513Z" stroke="#667085" stroke-width="2.156" stroke-linecap="round" stroke-linejoin="round"/>
</svg>
