<svg width="18" height="20" viewBox="0 0 18 20" fill="none" xmlns="http://www.w3.org/2000/svg">
<g clip-path="url(#clip0_4150_481)">
<path d="M5.8125 8.95932C5.8125 8.62985 6.05156 8.36029 6.34375 8.36029H11.125V4.84478C11.125 4.57896 11.4105 4.44418 11.5766 4.63138L16.2781 9.98889C16.4873 10.2248 16.4873 10.6029 16.2781 10.8387L11.5766 16.1963C11.4105 16.3835 11.125 16.2524 11.125 15.9829V12.4673H6.34375C6.05156 12.4673 5.8125 12.1978 5.8125 11.8683V8.95932V8.95932ZM4.75 8.95932V11.8683C4.75 12.8605 5.46387 13.6654 6.34375 13.6654H10.0625V15.9829C10.0625 17.3119 11.4902 17.9858 12.327 17.0424L17.0318 11.6886C17.6561 10.9848 17.6561 9.84662 17.0318 9.14277L12.327 3.78526C11.4936 2.84554 10.0625 3.51195 10.0625 4.84478V7.16225H6.34375C5.46387 7.16225 4.75 7.97093 4.75 8.95932V8.95932ZM0.5 5.02449V15.8069C0.5 16.799 1.21387 17.604 2.09375 17.604H6.47656C6.6957 17.604 6.875 17.4018 6.875 17.1547V16.8552C6.875 16.6081 6.6957 16.4059 6.47656 16.4059H2.09375C1.80156 16.4059 1.5625 16.1364 1.5625 15.8069V5.02449C1.5625 4.69502 1.80156 4.42546 2.09375 4.42546H6.47656C6.6957 4.42546 6.875 4.22329 6.875 3.9762V3.67668C6.875 3.42959 6.6957 3.22742 6.47656 3.22742H2.09375C1.21387 3.22742 0.5 4.03235 0.5 5.02449Z" fill="black"/>
</g>
<defs>
<clipPath id="clip0_4150_481">
<rect width="17" height="19.1687" fill="white" transform="translate(0.5 0.831299)"/>
</clipPath>
</defs>
</svg>
