<svg width="50" height="50" viewBox="0 0 50 50" fill="none" xmlns="http://www.w3.org/2000/svg">
<rect width="50" height="50" rx="25" fill="#EEEFF8"/>
<path d="M27.3807 29.235C28.9334 29.0512 30.459 28.6847 31.9257 28.1433C30.6836 26.7673 29.9972 24.9787 29.9999 23.125V22.5417V22.5C29.9999 21.1739 29.4731 19.9021 28.5354 18.9645C27.5978 18.0268 26.326 17.5 24.9999 17.5C23.6738 17.5 22.4021 18.0268 21.4644 18.9645C20.5267 19.9021 19.9999 21.1739 19.9999 22.5V23.125C20.0024 24.9789 19.3157 26.7675 18.0732 28.1433C19.5174 28.6767 21.0399 29.0475 22.6191 29.235M27.3807 29.235C25.7991 29.4226 24.2008 29.4226 22.6191 29.235M27.3807 29.235C27.5008 29.6099 27.5307 30.0078 27.4679 30.3964C27.4051 30.785 27.2514 31.1533 27.0194 31.4713C26.7873 31.7893 26.4835 32.048 26.1326 32.2263C25.7816 32.4047 25.3936 32.4976 24.9999 32.4976C24.6063 32.4976 24.2182 32.4047 23.8672 32.2263C23.5163 32.048 23.2125 31.7893 22.9804 31.4713C22.7484 31.1533 22.5947 30.785 22.5319 30.3964C22.4691 30.0078 22.499 29.6099 22.6191 29.235" stroke="#101F37" stroke-width="1.5" stroke-linecap="round" stroke-linejoin="round"/>
</svg>
