<svg width="14" height="17" viewBox="0 0 14 17" fill="none" xmlns="http://www.w3.org/2000/svg">
<path d="M5.10417 10.625H4.5625C4.41354 10.625 4.29167 10.7445 4.29167 10.8906V14.0781C4.29167 14.2242 4.41354 14.3438 4.5625 14.3438H5.10417C5.25313 14.3438 5.375 14.2242 5.375 14.0781V10.8906C5.375 10.7445 5.25313 10.625 5.10417 10.625ZM7.27083 7.4375H6.72917C6.58021 7.4375 6.45833 7.55703 6.45833 7.70312V14.0781C6.45833 14.2242 6.58021 14.3438 6.72917 14.3438H7.27083C7.41979 14.3438 7.54167 14.2242 7.54167 14.0781V7.70312C7.54167 7.55703 7.41979 7.4375 7.27083 7.4375ZM8.625 9.82812V14.0781C8.625 14.2242 8.74688 14.3438 8.89583 14.3438H9.4375C9.58646 14.3438 9.70833 14.2242 9.70833 14.0781V9.82812C9.70833 9.68203 9.58646 9.5625 9.4375 9.5625H8.89583C8.74688 9.5625 8.625 9.68203 8.625 9.82812ZM13.0227 3.25324L10.183 0.468164C9.87828 0.169336 9.46526 0 9.03565 0H2.12466C1.22786 0.00332031 0.5 0.717188 0.5 1.59674V15.4066C0.5 16.2861 1.22786 17 2.12466 17H11.8753C12.7721 17 13.5 16.2861 13.5 15.4066V4.38182C13.5 3.96047 13.3273 3.55207 13.0227 3.25324ZM9.16768 1.08209C9.26247 1.10533 9.34711 1.15182 9.4182 1.22154L12.2579 4.00662C12.329 4.07635 12.3764 4.15936 12.4001 4.25232H9.16768V1.08209ZM12.417 15.4066C12.417 15.6988 12.1733 15.9378 11.8753 15.9378H2.12466C1.82674 15.9378 1.58299 15.6988 1.58299 15.4066V1.59674C1.58299 1.30455 1.82674 1.0625 2.12466 1.0625H8.08435V4.51795C8.08435 4.95955 8.44659 5.3125 8.89685 5.3125H12.417V15.4066Z" fill="black"/>
</svg>
