<svg width="14" height="14" viewBox="0 0 14 14" fill="none" xmlns="http://www.w3.org/2000/svg">
<path d="M6.65311 1.83265C6.6813 1.76387 6.72932 1.70503 6.79105 1.66362C6.85279 1.62221 6.92544 1.6001 6.99978 1.6001C7.07411 1.6001 7.14676 1.62221 7.2085 1.66362C7.27023 1.70503 7.31825 1.76387 7.34644 1.83265L8.76311 5.23998C8.78963 5.30374 8.83322 5.35894 8.88909 5.39952C8.94496 5.4401 9.01094 5.46448 9.07978 5.46998L12.7584 5.76465C13.0911 5.79131 13.2258 6.20665 12.9724 6.42331L10.1698 8.82465C10.1174 8.86944 10.0784 8.92778 10.057 8.99328C10.0356 9.05878 10.0326 9.12891 10.0484 9.19598L10.9051 12.786C10.9223 12.858 10.9178 12.9335 10.8921 13.003C10.8665 13.0724 10.8208 13.1327 10.7609 13.1763C10.7009 13.2198 10.6295 13.2445 10.5555 13.2475C10.4815 13.2504 10.4083 13.2313 10.3451 13.1926L7.19511 11.2693C7.13627 11.2335 7.06869 11.2145 6.99978 11.2145C6.93086 11.2145 6.86328 11.2335 6.80444 11.2693L3.65444 13.1933C3.59128 13.232 3.51808 13.2511 3.44408 13.2481C3.37008 13.2452 3.29861 13.2204 3.23869 13.1769C3.17877 13.1334 3.13308 13.0731 3.10741 13.0036C3.08174 12.9342 3.07722 12.8587 3.09444 12.7866L3.95111 9.19598C3.967 9.12891 3.96408 9.05876 3.94267 8.99325C3.92126 8.92773 3.8822 8.86939 3.82978 8.82465L1.02711 6.42331C0.970984 6.37505 0.930382 6.31128 0.910408 6.24C0.890434 6.16873 0.89198 6.09314 0.914852 6.02274C0.937724 5.95235 0.980901 5.89028 1.03895 5.84436C1.097 5.79844 1.16734 5.7707 1.24111 5.76465L4.91978 5.46998C4.98861 5.46448 5.05459 5.4401 5.11046 5.39952C5.16633 5.35894 5.20992 5.30374 5.23644 5.23998L6.65311 1.83265Z" stroke="#D48D3B" stroke-width="1.5" stroke-linecap="round" stroke-linejoin="round"/>
</svg>
