<svg width="16" height="15" viewBox="0 0 16 15" fill="none" xmlns="http://www.w3.org/2000/svg">
<path d="M7.83722 0.371256C7.98271 0.0214652 8.47823 0.021465 8.62371 0.371256L10.3836 4.60259C10.445 4.75005 10.5836 4.85081 10.7428 4.86357L15.3109 5.22979C15.6885 5.26006 15.8417 5.73133 15.5539 5.97779L12.0736 8.95911C11.9523 9.06301 11.8993 9.22604 11.9363 9.38139L12.9997 13.8391C13.0876 14.2076 12.6867 14.4988 12.3634 14.3013L8.45247 11.9126C8.31618 11.8293 8.14476 11.8293 8.00846 11.9126L4.09755 14.3013C3.77425 14.4988 3.37337 14.2076 3.46127 13.8391L4.52459 9.38139C4.56164 9.22604 4.50867 9.06301 4.38738 8.95911L0.906987 5.97779C0.619273 5.73133 0.772396 5.26006 1.15003 5.22979L5.7181 4.86357C5.8773 4.85081 6.01598 4.75005 6.07731 4.60259L7.83722 0.371256Z" fill="#FDB022"/>
</svg>
