<svg width="16" height="15" viewBox="0 0 16 15" fill="none" xmlns="http://www.w3.org/2000/svg">
<path d="M13.8929 0.0625H2.10714C1.21987 0.0625 0.5 0.776367 0.5 1.65625V13.3438C0.5 14.2236 1.21987 14.9375 2.10714 14.9375H13.8929C14.7801 14.9375 15.5 14.2236 15.5 13.3438V1.65625C15.5 0.776367 14.7801 0.0625 13.8929 0.0625ZM14.4286 13.3438C14.4286 13.6359 14.1875 13.875 13.8929 13.875H2.10714C1.8125 13.875 1.57143 13.6359 1.57143 13.3438V1.65625C1.57143 1.36406 1.8125 1.125 2.10714 1.125H13.8929C14.1875 1.125 14.4286 1.36406 14.4286 1.65625V13.3438ZM7.19643 4.3125H5.85714V3.25C5.85714 3.03086 5.67634 2.85156 5.45536 2.85156H5.1875C4.96652 2.85156 4.78571 3.03086 4.78571 3.25V4.3125H3.44643C3.00446 4.3125 2.64286 4.67109 2.64286 5.10938V6.70312C2.64286 7.14141 3.00446 7.5 3.44643 7.5H4.78571V11.3516C4.78571 11.5707 4.96652 11.75 5.1875 11.75H5.45536C5.67634 11.75 5.85714 11.5707 5.85714 11.3516V7.5H7.19643C7.63839 7.5 8 7.14141 8 6.70312V5.10938C8 4.67109 7.63839 4.3125 7.19643 4.3125ZM6.92857 6.4375H3.71429V5.375H6.92857V6.4375ZM12.5536 7.5H11.2143V3.25C11.2143 3.03086 11.0335 2.85156 10.8125 2.85156H10.5446C10.3237 2.85156 10.1429 3.03086 10.1429 3.25V7.5H8.80357C8.36161 7.5 8 7.85859 8 8.29688V9.89062C8 10.3289 8.36161 10.6875 8.80357 10.6875H10.1429V11.3516C10.1429 11.5707 10.3237 11.75 10.5446 11.75H10.8125C11.0335 11.75 11.2143 11.5707 11.2143 11.3516V10.6875H12.5536C12.9955 10.6875 13.3571 10.3289 13.3571 9.89062V8.29688C13.3571 7.85859 12.9955 7.5 12.5536 7.5ZM12.2857 9.625H9.07143V8.5625H12.2857V9.625Z" fill="black"/>
</svg>
